# xmcd CD database file
#
# Track frame offsets:
#	150
#	13980
#	28117
#	42400
#	55182
#	67677
#	80900
#	94502
#	109172
#	124060
#	136170
#	156715
#	170245
#	185372
#	196957
#	210277
#
# Disc length: 2996 seconds
#
# Revision: 0
# Processed by: cddbd v1.4PL0 Copyright (c) Steve Scherf et al.
# Submitted via: CDex 1.50Beta6
#
DISCID=e10bb210
DTITLE=Bing Crosby - Pennies from heaven - Jazz Essentials
DYEAR=1900
DGENRE=Jazz
TTITLE0=Please
TTITLE1=I've got the world on a string
TTITLE2=Pennies from heaven
TTITLE3=Dinah
TTITLE4=Temptation
TTITLE5=How deep is the ocean
TTITLE6=Blue Hawaii
TTITLE7=Thanks
TTITLE8=Did you ever see a dream walking
TTITLE9=I'm an old cowhand
TTITLE10=St. Louis blues 
TTITLE11=Where the blue of the night (meets the gold of the day)
TTITLE12=Wrap your troubles in dreams (and dream your troubles away)
TTITLE13=Some of these days
TTITLE14=(Don't stand) a ghost of a chance with you
TTITLE15=Someday my sweetheart
EXTD=
EXTT0=
EXTT1=
EXTT2=
EXTT3=
EXTT4=
EXTT5=
EXTT6=
EXTT7=
EXTT8=
EXTT9=
EXTT10=
EXTT11=
EXTT12=
EXTT13=
EXTT14=
EXTT15=
PLAYORDER=
